<mxfile host="Electron" agent="Mozilla/5.0 (Macintosh; Intel Mac OS X 10_15_7) AppleWebKit/537.36 (KHTML, like Gecko) draw.io/24.7.17 Chrome/128.0.6613.36 Electron/32.0.1 Safari/537.36" version="24.7.17">
  <diagram id="AwXDz-gKkO-rnkYzp3Pk" name="Page-1">
    <mxGraphModel dx="1570" dy="1084" grid="1" gridSize="10" guides="1" tooltips="1" connect="1" arrows="1" fold="1" page="1" pageScale="1" pageWidth="827" pageHeight="1169" math="0" shadow="0">
      <root>
        <mxCell id="0" />
        <mxCell id="1" parent="0" />
        <mxCell id="LTy3HnIw4ogLk_WO-fy5-1" value="Service A&lt;br style=&quot;font-size: 16px;&quot;&gt;Instance 1" style="rounded=1;whiteSpace=wrap;html=1;fontColor=default;fontFamily=CMU Sans Serif;fontStyle=0;fontSize=16;" parent="1" vertex="1">
          <mxGeometry x="70" y="225.5" width="120" height="60" as="geometry" />
        </mxCell>
        <mxCell id="LTy3HnIw4ogLk_WO-fy5-2" value="Service B&lt;br style=&quot;font-size: 16px;&quot;&gt;Instance 1" style="rounded=1;whiteSpace=wrap;html=1;fontColor=default;fontFamily=CMU Sans Serif;fontStyle=0;fontSize=16;" parent="1" vertex="1">
          <mxGeometry x="610" y="156" width="120" height="60" as="geometry" />
        </mxCell>
        <mxCell id="LTy3HnIw4ogLk_WO-fy5-3" value="Service&amp;nbsp;B&lt;br style=&quot;font-size: 16px;&quot;&gt;Instance 2" style="rounded=1;whiteSpace=wrap;html=1;fontColor=default;fontFamily=CMU Sans Serif;fontStyle=0;fontSize=16;" parent="1" vertex="1">
          <mxGeometry x="690" y="287" width="120" height="60" as="geometry" />
        </mxCell>
        <mxCell id="LTy3HnIw4ogLk_WO-fy5-4" value="Service&amp;nbsp;B&lt;br style=&quot;font-size: 16px;&quot;&gt;Instance 3" style="rounded=1;whiteSpace=wrap;html=1;fontColor=default;fontFamily=CMU Sans Serif;fontStyle=0;fontSize=16;" parent="1" vertex="1">
          <mxGeometry x="690" y="380" width="120" height="60" as="geometry" />
        </mxCell>
        <mxCell id="LTy3HnIw4ogLk_WO-fy5-5" value="&lt;b&gt;&lt;font style=&quot;font-size: 14px&quot;&gt;Service B Service IP&lt;/font&gt;&lt;br&gt;&lt;font face=&quot;monospace&quot;&gt;&lt;span style=&quot;white-space: pre&quot;&gt; &lt;/span&gt;- Closest:&amp;nbsp; &lt;span style=&quot;white-space: pre;&quot;&gt;&#x9;&lt;/span&gt;&lt;font&gt;&lt;font&gt;fdff:1000::1&lt;br&gt;&lt;span style=&quot;white-space: pre;&quot;&gt; &lt;/span&gt;&lt;span style=&quot;white-space: pre;&quot;&gt; &lt;/span&gt;&lt;span style=&quot;white-space: pre;&quot;&gt; &lt;/span&gt;&lt;span style=&quot;white-space: pre;&quot;&gt; &lt;/span&gt;&lt;span style=&quot;white-space: pre;&quot;&gt; &lt;span style=&quot;white-space: pre;&quot;&gt;&#x9;&lt;span style=&quot;white-space: pre;&quot;&gt;&#x9;&lt;/span&gt;&lt;/span&gt;&lt;/span&gt;10.30.0.1&lt;/font&gt;&lt;br&gt;&lt;/font&gt;&lt;span style=&quot;white-space: pre&quot;&gt; &lt;/span&gt;- RoundRobin:&lt;/font&gt;&lt;span style=&quot;white-space: pre&quot;&gt;&lt;font face=&quot;monospace&quot;&gt; &lt;span style=&quot;white-space: pre;&quot;&gt;&#x9;&lt;/span&gt;&lt;/font&gt;&lt;font&gt;&lt;font face=&quot;monospace&quot;&gt;fdff:2000::1&lt;br&gt;&lt;span style=&quot;white-space: pre;&quot;&gt; &lt;/span&gt;&lt;span style=&quot;white-space: pre;&quot;&gt; &lt;/span&gt;&lt;span style=&quot;white-space: pre;&quot;&gt; &lt;/span&gt;&lt;span style=&quot;white-space: pre;&quot;&gt; &lt;/span&gt;&lt;span style=&quot;white-space: pre;&quot;&gt; &lt;span style=&quot;white-space: pre;&quot;&gt;&#x9;&lt;/span&gt;&lt;span style=&quot;white-space: pre;&quot;&gt;&#x9;&lt;/span&gt;&lt;/span&gt;10.30.0.2&lt;/font&gt;&lt;br&gt;&lt;/font&gt;&lt;/span&gt;&lt;/b&gt;" style="text;html=1;strokeColor=none;fillColor=none;align=left;verticalAlign=middle;whiteSpace=wrap;rounded=0;fontColor=default;" parent="1" vertex="1">
          <mxGeometry x="620" y="61" width="320" height="69" as="geometry" />
        </mxCell>
        <mxCell id="LTy3HnIw4ogLk_WO-fy5-7" value="&lt;font style=&quot;font-size: 14px;&quot;&gt;Namespace IP&lt;br style=&quot;font-size: 14px;&quot;&gt;&lt;/font&gt;&lt;div style=&quot;font-size: 14px;&quot;&gt;&lt;font style=&quot;font-size: 14px;&quot;&gt;10.18.3.1&lt;br style=&quot;font-size: 14px;&quot;&gt;&lt;/font&gt;&lt;/div&gt;&lt;div style=&quot;font-size: 14px;&quot;&gt;&lt;font style=&quot;font-size: 14px;&quot;&gt;fc00::18:3:1&lt;br style=&quot;font-size: 14px;&quot;&gt;&lt;/font&gt;&lt;/div&gt;" style="text;html=1;strokeColor=none;fillColor=none;align=center;verticalAlign=middle;whiteSpace=wrap;rounded=0;fontColor=default;fontFamily=CMU Sans Serif;fontSize=14;" parent="1" vertex="1">
          <mxGeometry x="720" y="208.75" width="120" height="30" as="geometry" />
        </mxCell>
        <mxCell id="LTy3HnIw4ogLk_WO-fy5-8" value="&lt;font style=&quot;font-size: 14px;&quot;&gt;&lt;b style=&quot;font-size: 14px;&quot;&gt;Namespace IP&lt;/b&gt;&lt;br style=&quot;font-size: 14px;&quot;&gt;&lt;/font&gt;&lt;div style=&quot;font-size: 14px;&quot;&gt;&lt;font style=&quot;font-size: 14px;&quot;&gt;10.21.3.2&lt;br style=&quot;font-size: 14px;&quot;&gt;&lt;/font&gt;&lt;/div&gt;&lt;div style=&quot;font-size: 14px;&quot;&gt;&lt;font style=&quot;font-size: 14px;&quot;&gt;fc00::21:3:2&lt;br style=&quot;font-size: 14px;&quot;&gt;&lt;/font&gt;&lt;/div&gt;" style="text;html=1;strokeColor=none;fillColor=none;align=center;verticalAlign=middle;whiteSpace=wrap;rounded=0;fontColor=default;fontFamily=CMU Sans Serif;fontSize=14;" parent="1" vertex="1">
          <mxGeometry x="800" y="329.5" width="120" height="30" as="geometry" />
        </mxCell>
        <mxCell id="LTy3HnIw4ogLk_WO-fy5-9" value="&lt;font style=&quot;font-size: 14px;&quot;&gt;&lt;b style=&quot;font-size: 14px;&quot;&gt;Namespace IP&lt;/b&gt;&lt;br style=&quot;font-size: 14px;&quot;&gt;&lt;/font&gt;&lt;div style=&quot;font-size: 14px;&quot;&gt;&lt;font style=&quot;font-size: 14px;&quot;&gt;10.41.3.7&lt;br style=&quot;font-size: 14px;&quot;&gt;&lt;/font&gt;&lt;/div&gt;&lt;div style=&quot;font-size: 14px;&quot;&gt;&lt;font style=&quot;font-size: 14px;&quot;&gt;fc00::41:3:7&lt;br style=&quot;font-size: 14px;&quot;&gt;&lt;/font&gt;&lt;/div&gt;" style="text;html=1;strokeColor=none;fillColor=none;align=center;verticalAlign=middle;whiteSpace=wrap;rounded=0;fontColor=default;fontFamily=CMU Sans Serif;fontSize=14;" parent="1" vertex="1">
          <mxGeometry x="800" y="440" width="120" height="30" as="geometry" />
        </mxCell>
        <mxCell id="LTy3HnIw4ogLk_WO-fy5-10" value="" style="endArrow=classic;html=1;rounded=0;fontColor=default;edgeStyle=orthogonalEdgeStyle;exitX=1;exitY=0.25;exitDx=0;exitDy=0;" parent="1" source="LTy3HnIw4ogLk_WO-fy5-1" target="LTy3HnIw4ogLk_WO-fy5-13" edge="1">
          <mxGeometry relative="1" as="geometry">
            <mxPoint x="230" y="220" as="sourcePoint" />
            <mxPoint x="360" y="220" as="targetPoint" />
            <Array as="points">
              <mxPoint x="230" y="241" />
              <mxPoint x="230" y="209" />
            </Array>
          </mxGeometry>
        </mxCell>
        <mxCell id="LTy3HnIw4ogLk_WO-fy5-12" value="&lt;font face=&quot;monospace&quot;&gt;fdff:1000::1&lt;/font&gt;" style="text;html=1;strokeColor=none;fillColor=none;align=center;verticalAlign=middle;whiteSpace=wrap;rounded=0;fontColor=default;" parent="1" vertex="1">
          <mxGeometry x="240" y="180" width="100" height="20" as="geometry" />
        </mxCell>
        <mxCell id="LTy3HnIw4ogLk_WO-fy5-13" value="" style="rounded=1;whiteSpace=wrap;html=1;fillColor=none;strokeColor=#6c8ebf;strokeWidth=4;fontColor=default;" parent="1" vertex="1">
          <mxGeometry x="359" y="175" width="110" height="285" as="geometry" />
        </mxCell>
        <mxCell id="LTy3HnIw4ogLk_WO-fy5-14" value="" style="endArrow=classic;html=1;rounded=0;fontColor=default;edgeStyle=orthogonalEdgeStyle;entryX=-0.003;entryY=0.394;entryDx=0;entryDy=0;entryPerimeter=0;" parent="1" target="LTy3HnIw4ogLk_WO-fy5-2" edge="1">
          <mxGeometry relative="1" as="geometry">
            <mxPoint x="469" y="210" as="sourcePoint" />
            <mxPoint x="600" y="180" as="targetPoint" />
            <Array as="points">
              <mxPoint x="560" y="210" />
              <mxPoint x="560" y="180" />
              <mxPoint x="610" y="180" />
            </Array>
          </mxGeometry>
        </mxCell>
        <mxCell id="LTy3HnIw4ogLk_WO-fy5-16" value="&lt;font face=&quot;monospace&quot;&gt;fc00::18:3:1&lt;/font&gt;" style="text;html=1;strokeColor=none;fillColor=none;align=center;verticalAlign=middle;whiteSpace=wrap;rounded=0;fontColor=default;fontFamily=Lucida Console;" parent="1" vertex="1">
          <mxGeometry x="465" y="181" width="100" height="20" as="geometry" />
        </mxCell>
        <mxCell id="LTy3HnIw4ogLk_WO-fy5-17" value="" style="endArrow=classic;html=1;rounded=0;fontColor=default;exitX=1;exitY=0.5;exitDx=0;exitDy=0;" parent="1" source="LTy3HnIw4ogLk_WO-fy5-1" edge="1">
          <mxGeometry relative="1" as="geometry">
            <mxPoint x="229" y="255" as="sourcePoint" />
            <mxPoint x="359" y="255" as="targetPoint" />
          </mxGeometry>
        </mxCell>
        <mxCell id="LTy3HnIw4ogLk_WO-fy5-19" value="&lt;font&gt;&lt;font face=&quot;monospace&quot; style=&quot;&quot;&gt;fdff:2000::1&lt;/font&gt;&lt;br&gt;&lt;/font&gt;" style="text;html=1;strokeColor=none;fillColor=none;align=center;verticalAlign=middle;whiteSpace=wrap;rounded=0;fontColor=default;" parent="1" vertex="1">
          <mxGeometry x="241" y="231" width="100" height="20" as="geometry" />
        </mxCell>
        <mxCell id="LTy3HnIw4ogLk_WO-fy5-22" value="&lt;font face=&quot;monospace&quot;&gt;fdff:2000::1&lt;/font&gt;" style="text;html=1;strokeColor=none;fillColor=none;align=center;verticalAlign=middle;whiteSpace=wrap;rounded=0;fontColor=default;fontFamily=Lucida Console;" parent="1" vertex="1">
          <mxGeometry x="240" y="286" width="100" height="20" as="geometry" />
        </mxCell>
        <mxCell id="LTy3HnIw4ogLk_WO-fy5-23" value="" style="endArrow=classic;html=1;rounded=0;fontColor=default;edgeStyle=orthogonalEdgeStyle;exitX=1;exitY=0.75;exitDx=0;exitDy=0;" parent="1" source="LTy3HnIw4ogLk_WO-fy5-1" edge="1">
          <mxGeometry relative="1" as="geometry">
            <mxPoint x="229.0000000000001" y="310" as="sourcePoint" />
            <mxPoint x="359" y="320" as="targetPoint" />
            <Array as="points">
              <mxPoint x="190" y="260" />
              <mxPoint x="230" y="260" />
              <mxPoint x="230" y="320" />
              <mxPoint x="359" y="320" />
            </Array>
          </mxGeometry>
        </mxCell>
        <mxCell id="LTy3HnIw4ogLk_WO-fy5-24" value="" style="shape=message;html=1;outlineConnect=0;fillColor=#CC99FF;strokeColor=#9673a6;fillStyle=hachure;strokeWidth=2;perimeterSpacing=4;fontColor=default;" parent="LTy3HnIw4ogLk_WO-fy5-23" vertex="1">
          <mxGeometry width="50" height="30" relative="1" as="geometry">
            <mxPoint x="27" y="-15" as="offset" />
          </mxGeometry>
        </mxCell>
        <mxCell id="LTy3HnIw4ogLk_WO-fy5-37" value="&lt;font face=&quot;monospace&quot;&gt;fc00::21:3:2&lt;/font&gt;" style="text;html=1;strokeColor=none;fillColor=none;align=center;verticalAlign=middle;whiteSpace=wrap;rounded=0;fontColor=default;fontFamily=Lucida Console;" parent="1" vertex="1">
          <mxGeometry x="560" y="285.5" width="100" height="20" as="geometry" />
        </mxCell>
        <mxCell id="LTy3HnIw4ogLk_WO-fy5-39" value="" style="shape=message;html=1;outlineConnect=0;fillColor=#99FFFF;strokeColor=#808080;strokeWidth=2;fontColor=#000000;" parent="1" vertex="1">
          <mxGeometry x="279.99538461538475" y="520" width="50" height="30" as="geometry" />
        </mxCell>
        <mxCell id="LTy3HnIw4ogLk_WO-fy5-40" value="" style="shape=message;html=1;outlineConnect=0;fillColor=#FFFF33;strokeColor=#999900;fillStyle=solid;strokeWidth=2;perimeterSpacing=4;fontColor=#000000;" parent="1" vertex="1">
          <mxGeometry x="363.49538461538475" y="520" width="50" height="30" as="geometry" />
        </mxCell>
        <mxCell id="LTy3HnIw4ogLk_WO-fy5-41" value="" style="shape=message;html=1;outlineConnect=0;fillColor=#CC99FF;strokeColor=#9673a6;fillStyle=hachure;strokeWidth=2;perimeterSpacing=4;fontColor=#000000;" parent="1" vertex="1">
          <mxGeometry x="450.0040298391366" y="520" width="50" height="30" as="geometry" />
        </mxCell>
        <mxCell id="LTy3HnIw4ogLk_WO-fy5-42" value="&lt;b style=&quot;font-size: 16px;&quot;&gt;Oakestra Network Component&lt;/b&gt;" style="text;html=1;strokeColor=none;fillColor=none;align=center;verticalAlign=middle;whiteSpace=wrap;rounded=0;fillStyle=cross-hatch;fontColor=default;fontFamily=CMU Sans Serif;fontSize=16;" parent="1" vertex="1">
          <mxGeometry x="384" y="208.75" width="60" height="30" as="geometry" />
        </mxCell>
        <mxCell id="LTy3HnIw4ogLk_WO-fy5-44" value="Proxy" style="rounded=0;whiteSpace=wrap;html=1;fillStyle=cross-hatch;fontColor=default;strokeColor=default;strokeWidth=1;fillColor=none;fontFamily=CMU Sans Serif;fontStyle=0;fontSize=16;" parent="1" vertex="1">
          <mxGeometry x="375.5" y="276" width="77" height="40" as="geometry" />
        </mxCell>
        <mxCell id="LTy3HnIw4ogLk_WO-fy5-45" value="Conversion Table" style="rounded=0;whiteSpace=wrap;html=1;fillStyle=cross-hatch;fontColor=default;strokeColor=default;strokeWidth=1;fillColor=none;fontFamily=CMU Sans Serif;fontStyle=0;fontSize=16;" parent="1" vertex="1">
          <mxGeometry x="375.5" y="362" width="77" height="40" as="geometry" />
        </mxCell>
        <mxCell id="LTy3HnIw4ogLk_WO-fy5-47" value="&lt;font style=&quot;font-size: 14px;&quot;&gt;&lt;b style=&quot;font-size: 14px;&quot;&gt;Instance IP&lt;/b&gt;&lt;br style=&quot;font-size: 14px;&quot;&gt;&lt;/font&gt;&lt;div style=&quot;font-size: 14px;&quot;&gt;&lt;font style=&quot;font-size: 14px;&quot;&gt;10.30.0.3&lt;/font&gt;&lt;/div&gt;&lt;div style=&quot;font-size: 14px;&quot;&gt;&lt;font style=&quot;font-size: 14px;&quot;&gt;fdff::3&lt;br style=&quot;font-size: 14px;&quot;&gt;&lt;/font&gt;&lt;/div&gt;" style="text;html=1;strokeColor=none;fillColor=none;align=center;verticalAlign=middle;whiteSpace=wrap;rounded=0;fontColor=default;fontFamily=CMU Sans Serif;fontSize=14;" parent="1" vertex="1">
          <mxGeometry x="720" y="160" width="120" height="30" as="geometry" />
        </mxCell>
        <mxCell id="LTy3HnIw4ogLk_WO-fy5-48" value="&lt;font style=&quot;font-size: 14px;&quot;&gt;&lt;b style=&quot;font-size: 14px;&quot;&gt;Instance IP&lt;br style=&quot;font-size: 14px;&quot;&gt;&lt;/b&gt;&lt;/font&gt;&lt;div style=&quot;font-size: 14px;&quot;&gt;&lt;font style=&quot;font-size: 14px;&quot;&gt;10.30.0.4&lt;br style=&quot;font-size: 14px;&quot;&gt;&lt;/font&gt;&lt;/div&gt;&lt;div style=&quot;font-size: 14px;&quot;&gt;&lt;font style=&quot;font-size: 14px;&quot;&gt;fdff::4&lt;br style=&quot;font-size: 14px;&quot;&gt;&lt;/font&gt;&lt;/div&gt;" style="text;html=1;strokeColor=none;fillColor=none;align=center;verticalAlign=middle;whiteSpace=wrap;rounded=0;fontColor=default;fontFamily=CMU Sans Serif;fontSize=14;" parent="1" vertex="1">
          <mxGeometry x="800" y="275.5" width="120" height="30" as="geometry" />
        </mxCell>
        <mxCell id="LTy3HnIw4ogLk_WO-fy5-49" value="&lt;div style=&quot;font-size: 14px;&quot;&gt;&lt;font style=&quot;font-size: 14px;&quot;&gt;&lt;b style=&quot;font-size: 14px;&quot;&gt;Instance IP&lt;/b&gt;&lt;/font&gt;&lt;/div&gt;&lt;div style=&quot;font-size: 14px;&quot;&gt;&lt;font style=&quot;font-size: 14px;&quot;&gt;10.30.0.5&lt;b style=&quot;font-size: 14px;&quot;&gt;&lt;br style=&quot;font-size: 14px;&quot;&gt;&lt;/b&gt;&lt;/font&gt;&lt;/div&gt;&lt;font style=&quot;font-size: 14px;&quot;&gt;fdff::5&lt;br style=&quot;font-size: 14px;&quot;&gt;&lt;/font&gt;" style="text;html=1;strokeColor=none;fillColor=none;align=center;verticalAlign=middle;whiteSpace=wrap;rounded=0;fontColor=default;fontFamily=CMU Sans Serif;fontSize=14;" parent="1" vertex="1">
          <mxGeometry x="800" y="390" width="120" height="30" as="geometry" />
        </mxCell>
        <mxCell id="LTy3HnIw4ogLk_WO-fy5-50" value="&lt;font style=&quot;font-size: 14px;&quot;&gt;&lt;b style=&quot;font-size: 14px;&quot;&gt;Instance IP&lt;br style=&quot;font-size: 14px;&quot;&gt;&lt;/b&gt;&lt;/font&gt;&lt;div style=&quot;font-size: 14px;&quot;&gt;&lt;font style=&quot;font-size: 14px;&quot;&gt;10.30.1.5&lt;br style=&quot;font-size: 14px;&quot;&gt;&lt;/font&gt;&lt;/div&gt;&lt;div style=&quot;font-size: 14px;&quot;&gt;&lt;font style=&quot;font-size: 14px;&quot;&gt;fdff::105&lt;br style=&quot;font-size: 14px;&quot;&gt;&lt;/font&gt;&lt;/div&gt;" style="text;html=1;strokeColor=none;fillColor=none;align=center;verticalAlign=middle;whiteSpace=wrap;rounded=0;fontColor=default;fontFamily=CMU Sans Serif;fontSize=14;" parent="1" vertex="1">
          <mxGeometry x="70" y="295.25" width="120" height="44.5" as="geometry" />
        </mxCell>
        <mxCell id="LTy3HnIw4ogLk_WO-fy5-51" value="&lt;font style=&quot;font-size: 14px;&quot;&gt;&lt;b style=&quot;font-size: 14px;&quot;&gt;Namespace IP&lt;/b&gt;&lt;br style=&quot;font-size: 14px;&quot;&gt;&lt;/font&gt;&lt;div style=&quot;font-size: 14px;&quot;&gt;&lt;font style=&quot;font-size: 14px;&quot;&gt;10.101.3.23&lt;br style=&quot;font-size: 14px;&quot;&gt;&lt;/font&gt;&lt;/div&gt;&lt;div style=&quot;font-size: 14px;&quot;&gt;&lt;font style=&quot;font-size: 14px;&quot;&gt;fc00::101:3:23&lt;br style=&quot;font-size: 14px;&quot;&gt;&lt;/font&gt;&lt;/div&gt;" style="text;html=1;strokeColor=none;fillColor=none;align=center;verticalAlign=middle;whiteSpace=wrap;rounded=0;fontColor=default;fontFamily=CMU Sans Serif;fontSize=14;" parent="1" vertex="1">
          <mxGeometry x="70" y="350" width="120" height="30" as="geometry" />
        </mxCell>
        <mxCell id="LTy3HnIw4ogLk_WO-fy5-53" value="" style="endArrow=classic;html=1;rounded=0;fontColor=default;edgeStyle=orthogonalEdgeStyle;" parent="1" edge="1">
          <mxGeometry relative="1" as="geometry">
            <mxPoint x="190" y="280" as="sourcePoint" />
            <mxPoint x="359" y="370.5" as="targetPoint" />
            <Array as="points">
              <mxPoint x="190" y="270" />
              <mxPoint x="220" y="270" />
              <mxPoint x="220" y="370" />
            </Array>
          </mxGeometry>
        </mxCell>
        <mxCell id="LTy3HnIw4ogLk_WO-fy5-54" value="" style="shape=message;html=1;outlineConnect=0;fillColor=#33FF33;strokeColor=#009900;fillStyle=hachure;strokeWidth=2;perimeterSpacing=4;fontColor=default;" parent="LTy3HnIw4ogLk_WO-fy5-53" vertex="1">
          <mxGeometry width="50" height="30" relative="1" as="geometry">
            <mxPoint x="45" y="-8" as="offset" />
          </mxGeometry>
        </mxCell>
        <mxCell id="LTy3HnIw4ogLk_WO-fy5-55" value="" style="shape=message;html=1;outlineConnect=0;fillColor=#33FF33;strokeColor=#009900;fillStyle=hachure;strokeWidth=2;perimeterSpacing=4;fontColor=#000000;" parent="1" vertex="1">
          <mxGeometry x="530.0000000000002" y="519.99992000032" width="50" height="30" as="geometry" />
        </mxCell>
        <mxCell id="LTy3HnIw4ogLk_WO-fy5-56" value="&lt;font face=&quot;monospace&quot;&gt;fdff::5&lt;/font&gt;" style="text;html=1;strokeColor=none;fillColor=none;align=center;verticalAlign=middle;whiteSpace=wrap;rounded=0;fontColor=default;fontFamily=Lucida Console;" parent="1" vertex="1">
          <mxGeometry x="240" y="343" width="100" height="20" as="geometry" />
        </mxCell>
        <mxCell id="uWR8DlNDWXulXPNZJf9a-3" value="" style="endArrow=classic;html=1;rounded=0;exitX=0.99;exitY=0.886;exitDx=0;exitDy=0;entryX=-0.024;entryY=0.893;entryDx=0;entryDy=0;entryPerimeter=0;exitPerimeter=0;fontColor=default;" parent="1" source="LTy3HnIw4ogLk_WO-fy5-1" target="LTy3HnIw4ogLk_WO-fy5-13" edge="1">
          <mxGeometry width="50" height="50" relative="1" as="geometry">
            <mxPoint x="530" y="410" as="sourcePoint" />
            <mxPoint x="580" y="360" as="targetPoint" />
            <Array as="points">
              <mxPoint x="190" y="430" />
            </Array>
          </mxGeometry>
        </mxCell>
        <mxCell id="uWR8DlNDWXulXPNZJf9a-6" value="&lt;font face=&quot;monospace&quot;&gt;10.30.0.1&lt;/font&gt;" style="text;html=1;strokeColor=none;fillColor=none;align=center;verticalAlign=middle;whiteSpace=wrap;rounded=0;fontColor=default;fontFamily=Lucida Console;" parent="1" vertex="1">
          <mxGeometry x="241" y="400" width="100" height="20" as="geometry" />
        </mxCell>
        <mxCell id="uWR8DlNDWXulXPNZJf9a-10" value="" style="shape=message;html=1;outlineConnect=0;fillColor=#d80073;strokeColor=#A50040;fillStyle=solid;strokeWidth=2;perimeterSpacing=4;fontColor=#000000;shadow=0;" parent="1" vertex="1">
          <mxGeometry x="609.9953846153848" y="520" width="50" height="30" as="geometry" />
        </mxCell>
        <mxCell id="uWR8DlNDWXulXPNZJf9a-13" value="&lt;font face=&quot;monospace&quot;&gt;fc00::41:3:7&lt;/font&gt;" style="text;html=1;strokeColor=none;fillColor=none;align=center;verticalAlign=middle;whiteSpace=wrap;rounded=0;fontColor=default;fontFamily=Lucida Console;" parent="1" vertex="1">
          <mxGeometry x="494" y="382" width="100" height="20" as="geometry" />
        </mxCell>
        <mxCell id="uWR8DlNDWXulXPNZJf9a-15" value="" style="endArrow=classic;html=1;rounded=0;entryX=0;entryY=0.5;entryDx=0;entryDy=0;fontColor=default;" parent="1" target="LTy3HnIw4ogLk_WO-fy5-4" edge="1">
          <mxGeometry width="50" height="50" relative="1" as="geometry">
            <mxPoint x="470" y="410" as="sourcePoint" />
            <mxPoint x="580" y="360" as="targetPoint" />
          </mxGeometry>
        </mxCell>
        <mxCell id="uWR8DlNDWXulXPNZJf9a-16" value="" style="endArrow=classic;html=1;rounded=0;entryX=0;entryY=0.5;entryDx=0;entryDy=0;exitX=1;exitY=0.5;exitDx=0;exitDy=0;fontColor=default;" parent="1" source="LTy3HnIw4ogLk_WO-fy5-13" target="LTy3HnIw4ogLk_WO-fy5-3" edge="1">
          <mxGeometry width="50" height="50" relative="1" as="geometry">
            <mxPoint x="530" y="410" as="sourcePoint" />
            <mxPoint x="580" y="360" as="targetPoint" />
          </mxGeometry>
        </mxCell>
        <mxCell id="uWR8DlNDWXulXPNZJf9a-18" value="" style="endArrow=classic;html=1;rounded=0;exitX=0.991;exitY=0.317;exitDx=0;exitDy=0;entryX=0;entryY=0.75;entryDx=0;entryDy=0;exitPerimeter=0;fontColor=default;" parent="1" source="LTy3HnIw4ogLk_WO-fy5-13" target="LTy3HnIw4ogLk_WO-fy5-2" edge="1">
          <mxGeometry width="50" height="50" relative="1" as="geometry">
            <mxPoint x="530" y="410" as="sourcePoint" />
            <mxPoint x="580" y="360" as="targetPoint" />
            <Array as="points">
              <mxPoint x="580" y="265" />
              <mxPoint x="580" y="201" />
            </Array>
          </mxGeometry>
        </mxCell>
        <mxCell id="uWR8DlNDWXulXPNZJf9a-19" value="&lt;font face=&quot;monospace&quot;&gt;10.18.3.1&lt;/font&gt;" style="text;html=1;strokeColor=none;fillColor=none;align=center;verticalAlign=middle;whiteSpace=wrap;rounded=0;fontColor=default;fontFamily=Lucida Console;" parent="1" vertex="1">
          <mxGeometry x="469" y="238.75" width="100" height="20" as="geometry" />
        </mxCell>
        <mxCell id="LTy3HnIw4ogLk_WO-fy5-35" value="" style="shape=message;html=1;outlineConnect=0;fillColor=#CC99FF;strokeColor=#9673a6;fillStyle=hachure;strokeWidth=2;perimeterSpacing=4;fontColor=default;" parent="1" vertex="1">
          <mxGeometry x="584.9953846153848" y="308.5" width="50" height="30" as="geometry" />
        </mxCell>
        <mxCell id="LTy3HnIw4ogLk_WO-fy5-31" value="" style="shape=message;html=1;outlineConnect=0;fillColor=#99FFFF;strokeColor=#808080;strokeWidth=2;fontColor=default;" parent="1" vertex="1">
          <mxGeometry x="264.99538461538475" y="200" width="50" height="30" as="geometry" />
        </mxCell>
        <mxCell id="LTy3HnIw4ogLk_WO-fy5-32" value="" style="shape=message;html=1;outlineConnect=0;fillColor=#FFFF33;strokeColor=#999900;fillStyle=solid;strokeWidth=2;perimeterSpacing=4;fontColor=default;" parent="1" vertex="1">
          <mxGeometry x="264.99538461538475" y="250" width="50" height="30" as="geometry" />
        </mxCell>
        <mxCell id="LTy3HnIw4ogLk_WO-fy5-33" value="" style="shape=message;html=1;outlineConnect=0;fillColor=#99FFFF;strokeColor=#808080;strokeWidth=2;fontColor=default;" parent="1" vertex="1">
          <mxGeometry x="489.99538461538475" y="200" width="50" height="30" as="geometry" />
        </mxCell>
        <mxCell id="LTy3HnIw4ogLk_WO-fy5-34" value="" style="shape=message;html=1;outlineConnect=0;fillColor=#FFFF33;strokeColor=#999900;fillStyle=solid;strokeWidth=2;perimeterSpacing=4;fontColor=default;" parent="1" vertex="1">
          <mxGeometry x="559.9953846153848" y="402" width="50" height="30" as="geometry" />
        </mxCell>
        <mxCell id="uWR8DlNDWXulXPNZJf9a-5" value="" style="shape=message;html=1;outlineConnect=0;fillColor=#d80073;strokeColor=#A50040;fillStyle=solid;strokeWidth=2;perimeterSpacing=4;fontColor=default;" parent="1" vertex="1">
          <mxGeometry x="265.99538461538475" y="420" width="50" height="30" as="geometry" />
        </mxCell>
        <mxCell id="LTy3HnIw4ogLk_WO-fy5-61" value="" style="shape=message;html=1;outlineConnect=0;fillColor=#33FF33;strokeColor=#009900;fillStyle=hachure;strokeWidth=2;perimeterSpacing=4;fontColor=default;" parent="1" vertex="1">
          <mxGeometry x="494.0000000000002" y="401.99992000032" width="50" height="30" as="geometry" />
        </mxCell>
        <mxCell id="uWR8DlNDWXulXPNZJf9a-17" value="" style="shape=message;html=1;outlineConnect=0;fillColor=#d80073;strokeColor=#A50040;fillStyle=solid;strokeWidth=2;perimeterSpacing=4;fontColor=default;" parent="1" vertex="1">
          <mxGeometry x="494" y="258.75" width="50" height="30" as="geometry" />
        </mxCell>
      </root>
    </mxGraphModel>
  </diagram>
</mxfile>
